<?xml version="1.0" encoding="utf-8"?>
<!-- Generator: Adobe Illustrator 24.0.2, SVG Export Plug-In . SVG Version: 6.00 Build 0)  -->
<svg version="1.1" id="Layer_1" xmlns="http://www.w3.org/2000/svg" xmlns:xlink="http://www.w3.org/1999/xlink" x="0px" y="0px"
	 viewBox="0 0 200 200" style="enable-background:new 0 0 200 200;" xml:space="preserve">
<style type="text/css">
	.st0{fill:#373737;}
</style>
<g>
	<path class="st0" d="M100.42,197.64c-53.94,0-97.82-43.88-97.82-97.82C2.6,45.88,46.48,2,100.42,2s97.82,43.88,97.82,97.82
		C198.24,153.76,154.35,197.64,100.42,197.64z M100.42,9.27c-49.93,0-90.55,40.62-90.55,90.55c0,49.93,40.62,90.55,90.55,90.55
		s90.55-40.62,90.55-90.55C190.97,49.89,150.35,9.27,100.42,9.27z"/>
	<g>
		<polygon class="st0" points="92.26,130.34 45.11,83.17 103.36,24.89 150.51,72.07 117.23,105.37 100.58,88.72 106.13,83.17 
			117.23,94.27 139.41,72.07 103.36,36 56.21,83.17 97.81,124.8 		"/>
	</g>
	<g>
		<polygon class="st0" points="97.81,174.74 39.57,116.47 53.43,102.59 58.98,108.14 50.66,116.47 97.81,163.64 150.51,110.92 
			136.64,97.04 142.19,91.5 161.6,110.92 		"/>
	</g>
	<g>
		<rect x="99.68" y="137.49" class="st0" width="7.84" height="7.85"/>
	</g>
	<g>
		<rect x="116.16" y="70.34" class="st0" width="7.84" height="7.5"/>
	</g>
</g>
</svg>
